<svg width="179" height="185" viewBox="0 0 179 185" fill="none" xmlns="http://www.w3.org/2000/svg">
<g filter="url(#filter0_d_69_13)">
<path d="M142.619 84.0903C142.009 84.0936 141.402 84.1636 140.808 84.299L132.391 69.6742C133.15 68.7218 133.694 67.6146 133.982 66.4299C134.271 65.2452 134.299 64.0115 134.063 62.815C133.828 61.6185 133.335 60.488 132.619 59.5024C131.903 58.5168 130.981 57.6999 129.918 57.1086C128.854 56.5174 127.675 56.1662 126.463 56.0794C125.251 55.9927 124.034 56.1725 122.898 56.6063C121.762 57.0401 120.734 57.7175 119.886 58.5911C119.037 59.4648 118.389 60.5137 117.987 61.6645H105.786C105.12 59.7255 103.764 58.1017 101.977 57.1053C100.191 56.1089 98.1004 55.8101 96.1077 56.2665L87.6918 41.6389C88.4507 40.6863 88.9933 39.579 89.2817 38.3943C89.5701 37.2096 89.5973 35.976 89.3614 34.7797C89.1256 33.5833 88.6323 32.453 87.9161 31.4677C87.1999 30.4824 86.278 29.6657 85.2148 29.0748C84.1515 28.4839 82.9726 28.1329 81.7602 28.0464C80.5478 27.9599 79.3312 28.1399 78.1953 28.5738C77.0594 29.0078 76.0315 29.6853 75.1836 30.559C74.3356 31.4327 73.6878 32.4815 73.2856 33.6324H61.0843C60.6845 32.4779 60.0379 31.4252 59.19 30.5478C58.3421 29.6704 57.3132 28.9896 56.1755 28.5531C55.0378 28.1166 53.8187 27.9349 52.6037 28.0207C51.3886 28.1066 50.207 28.4579 49.1414 29.0501C48.0759 29.6422 47.1523 30.461 46.4353 31.4489C45.7183 32.4369 45.2251 33.5702 44.9905 34.7694C44.7558 35.9687 44.7853 37.2049 45.0768 38.3915C45.3683 39.5781 45.9149 40.6865 46.6781 41.6389L38.2622 56.2665C37.0308 55.9826 35.7514 55.9815 34.5196 56.2635C33.2877 56.5454 32.1353 57.1031 31.1485 57.8948C30.1616 58.6864 29.3659 59.6917 28.8207 60.8353C28.2755 61.9789 27.995 63.2314 28.0001 64.4991C28.0052 65.7669 28.2957 67.017 28.8501 68.1562C29.4045 69.2954 30.2083 70.2942 31.2014 71.0778C32.1946 71.8615 33.3515 72.4098 34.5855 72.6818C35.8196 72.9538 37.099 72.9424 38.3281 72.6485L46.7246 87.2395C45.5109 88.7086 44.8428 90.5547 44.8343 92.4629C44.8257 94.3711 45.4772 96.2232 46.6776 97.7033L38.2612 112.33C37.0299 112.047 35.7505 112.046 34.5188 112.328C33.2871 112.611 32.1349 113.168 31.1483 113.96C30.1617 114.752 29.3662 115.757 28.8212 116.901C28.2762 118.045 27.9959 119.297 28.0011 120.565C28.0064 121.832 28.2971 123.082 28.8515 124.221C29.406 125.36 30.2098 126.359 31.2029 127.143C32.1961 127.926 33.3529 128.474 34.5869 128.746C35.8209 129.018 37.1001 129.007 38.3291 128.713L46.7249 143.304C45.9558 144.252 45.4028 145.358 45.1047 146.543C44.8065 147.728 44.7705 148.965 44.999 150.166C45.2276 151.366 45.7153 152.503 46.4278 153.494C47.1404 154.486 48.0605 155.309 49.1238 155.906C50.187 156.503 51.3676 156.86 52.5827 156.951C53.7978 157.041 55.0179 156.864 56.1576 156.432C57.2972 155.999 58.3288 155.322 59.1799 154.447C60.031 153.572 60.681 152.521 61.0843 151.368H73.2856C73.6864 152.525 74.3352 153.58 75.1863 154.459C76.0374 155.338 77.0701 156.018 78.2117 156.454C79.3533 156.889 80.5761 157.067 81.794 156.977C83.0118 156.887 84.1952 156.53 85.2609 155.932C86.3265 155.333 87.2484 154.508 87.9618 153.513C88.6751 152.519 89.1626 151.379 89.3898 150.176C89.6171 148.972 89.5786 147.732 89.2771 146.545C88.9755 145.358 88.4183 144.251 87.6446 143.303L96.0391 128.712C98.0393 129.195 100.147 128.911 101.95 127.917C103.752 126.922 105.12 125.289 105.786 123.335H117.987C118.388 124.493 119.037 125.548 119.888 126.427C120.739 127.305 121.771 127.986 122.913 128.421C124.055 128.856 125.277 129.035 126.495 128.945C127.713 128.855 128.897 128.498 129.962 127.9C131.028 127.301 131.95 126.476 132.663 125.481C133.376 124.487 133.864 123.348 134.091 122.144C134.319 120.94 134.28 119.701 133.979 118.513C133.677 117.326 133.12 116.219 132.346 115.271L140.742 100.68C141.891 100.947 143.084 100.966 144.242 100.738C145.4 100.509 146.497 100.038 147.46 99.354C148.424 98.6704 149.232 97.7903 149.833 96.7713C150.434 95.7522 150.813 94.6173 150.947 93.4408C151.08 92.2644 150.963 91.073 150.606 89.9448C150.248 88.8165 149.656 87.7769 148.87 86.894C148.084 86.0112 147.12 85.305 146.043 84.8218C144.966 84.3386 143.799 84.0893 142.619 84.0903ZM125.856 61.6645C126.408 61.6645 126.948 61.8289 127.408 62.137C127.867 62.445 128.225 62.8828 128.437 63.395C128.648 63.9072 128.704 64.4709 128.596 65.0146C128.488 65.5584 128.222 66.0579 127.831 66.4499C127.44 66.842 126.943 67.109 126.401 67.2171C125.859 67.3253 125.297 67.2698 124.787 67.0576C124.276 66.8454 123.84 66.4861 123.533 66.0251C123.226 65.5642 123.062 65.0222 123.062 64.4678C123.062 63.7243 123.356 63.0113 123.88 62.4856C124.404 61.9599 125.115 61.6645 125.856 61.6645ZM97.9172 61.6645C98.4698 61.6645 99.01 61.8289 99.4694 62.137C99.9288 62.445 100.287 62.8828 100.498 63.395C100.71 63.9072 100.765 64.4709 100.657 65.0146C100.55 65.5584 100.284 66.0579 99.8928 66.4499C99.502 66.842 99.0042 67.109 98.4623 67.2171C97.9203 67.3253 97.3586 67.2698 96.8481 67.0576C96.3376 66.8454 95.9012 66.4861 95.5942 66.0251C95.2872 65.5642 95.1234 65.0222 95.1234 64.4678C95.1234 63.7243 95.4177 63.0113 95.9417 62.4856C96.4656 61.9599 97.1762 61.6645 97.9172 61.6645ZM81.1542 33.6324C81.7067 33.6324 82.2469 33.7968 82.7063 34.1048C83.1658 34.4128 83.5239 34.8506 83.7353 35.3628C83.9468 35.8751 84.0021 36.4387 83.8943 36.9825C83.7865 37.5262 83.5204 38.0257 83.1297 38.4178C82.739 38.8098 82.2412 39.0768 81.6992 39.1849C81.1573 39.2931 80.5955 39.2376 80.085 39.0254C79.5745 38.8132 79.1382 38.454 78.8312 37.993C78.5242 37.532 78.3603 36.99 78.3603 36.4356C78.3603 35.6921 78.6547 34.9791 79.1786 34.4534C79.7026 33.9277 80.4132 33.6324 81.1542 33.6324ZM53.2157 33.6324C53.7683 33.6324 54.3085 33.7968 54.7679 34.1048C55.2273 34.4128 55.5854 34.8506 55.7969 35.3628C56.0084 35.8751 56.0637 36.4387 55.9559 36.9825C55.8481 37.5262 55.582 38.0257 55.1913 38.4178C54.8005 38.8098 54.3027 39.0768 53.7608 39.1849C53.2188 39.2931 52.6571 39.2376 52.1466 39.0254C51.6361 38.8132 51.1997 38.454 50.8927 37.993C50.5857 37.532 50.4219 36.99 50.4219 36.4356C50.4219 35.6921 50.7162 34.9791 51.2402 34.4534C51.7641 33.9277 52.4747 33.6324 53.2157 33.6324ZM36.4527 67.271C35.9001 67.271 35.3599 67.1066 34.9005 66.7986C34.441 66.4905 34.0829 66.0527 33.8715 65.5405C33.66 65.0283 33.6047 64.4647 33.7125 63.9209C33.8203 63.3771 34.0864 62.8776 34.4771 62.4856C34.8678 62.0936 35.3657 61.8266 35.9076 61.7184C36.4496 61.6102 37.0113 61.6658 37.5218 61.8779C38.0323 62.0901 38.4687 62.4494 38.7757 62.9104C39.0826 63.3714 39.2465 63.9133 39.2465 64.4678C39.2465 65.2112 38.9521 65.9242 38.4282 66.4499C37.9043 66.9756 37.1936 67.271 36.4527 67.271ZM43.0362 69.6156C44.2079 68.1445 44.8424 66.3151 44.834 64.4319C44.8256 62.5487 44.175 60.7251 42.9903 59.2644L51.4061 44.6368C53.3989 45.0932 55.4894 44.7945 57.2759 43.7981C59.0623 42.8016 60.4187 41.1778 61.0843 39.2388H73.2856C73.9512 41.1781 75.3078 42.802 77.0946 43.7984C78.8814 44.7948 80.9723 45.0933 82.9651 44.6365L91.3818 59.2613C90.196 60.722 89.5445 62.5461 89.5358 64.43C89.527 66.3139 90.1615 68.1439 91.3337 69.6156L82.8966 84.2775C80.9114 83.8484 78.8384 84.1626 77.0682 85.1608C75.2979 86.159 73.9525 87.7723 73.2856 89.6967H61.0843C60.4174 87.7723 59.072 86.159 57.3018 85.1608C55.5315 84.1626 53.4586 83.8485 51.4735 84.2775L43.0362 69.6156ZM83.948 92.4999C83.948 93.0544 83.7841 93.5963 83.4772 94.0573C83.1702 94.5183 82.7338 94.8776 82.2233 95.0898C81.7128 95.3019 81.1511 95.3575 80.6091 95.2493C80.0672 95.1411 79.5693 94.8742 79.1786 94.4821C78.7879 94.0901 78.5218 93.5906 78.414 93.0468C78.3062 92.5031 78.3615 91.9394 78.573 91.4272C78.7844 90.915 79.1425 90.4772 79.602 90.1692C80.0614 89.8611 80.6016 89.6967 81.1542 89.6967C81.8951 89.6967 82.6058 89.9921 83.1297 90.5178C83.6537 91.0435 83.948 91.7565 83.948 92.4999ZM56.0096 92.4999C56.0096 93.0544 55.8457 93.5963 55.5387 94.0573C55.2317 94.5183 54.7954 94.8776 54.2849 95.0898C53.7744 95.3019 53.2126 95.3575 52.6707 95.2493C52.1287 95.1411 51.6309 94.8742 51.2402 94.4821C50.8494 94.0901 50.5834 93.5906 50.4756 93.0468C50.3678 92.5031 50.4231 91.9394 50.6345 91.4272C50.846 90.915 51.2041 90.4772 51.6635 90.1692C52.123 89.8611 52.6631 89.6967 53.2157 89.6967C53.9567 89.6967 54.6673 89.9921 55.1913 90.5178C55.7152 91.0435 56.0096 91.7565 56.0096 92.4999ZM36.4527 123.335C35.9001 123.335 35.3599 123.171 34.9005 122.863C34.441 122.555 34.0829 122.117 33.8715 121.605C33.66 121.093 33.6047 120.529 33.7125 119.985C33.8203 119.441 34.0864 118.942 34.4771 118.55C34.8678 118.158 35.3657 117.891 35.9076 117.783C36.4496 117.675 37.0113 117.73 37.5218 117.942C38.0323 118.154 38.4687 118.514 38.7757 118.975C39.0826 119.436 39.2465 119.978 39.2465 120.532C39.2465 121.276 38.9521 121.989 38.4282 122.514C37.9043 123.04 37.1936 123.335 36.4527 123.335ZM53.2157 151.368C52.6631 151.368 52.123 151.203 51.6635 150.895C51.2041 150.587 50.846 150.149 50.6345 149.637C50.4231 149.125 50.3678 148.561 50.4756 148.017C50.5834 147.474 50.8494 146.974 51.2402 146.582C51.6309 146.19 52.1287 145.923 52.6707 145.815C53.2126 145.707 53.7744 145.762 54.2849 145.974C54.7954 146.187 55.2317 146.546 55.5387 147.007C55.8457 147.468 56.0096 148.01 56.0096 148.564C56.0096 149.308 55.7152 150.021 55.1913 150.546C54.6673 151.072 53.9567 151.368 53.2157 151.368ZM81.1542 151.368C80.6016 151.368 80.0614 151.203 79.602 150.895C79.1425 150.587 78.7844 150.149 78.573 149.637C78.3615 149.125 78.3062 148.561 78.414 148.017C78.5218 147.474 78.7879 146.974 79.1786 146.582C79.5693 146.19 80.0672 145.923 80.6091 145.815C81.1511 145.707 81.7128 145.762 82.2233 145.974C82.7338 146.187 83.1702 146.546 83.4772 147.007C83.7841 147.468 83.948 148.01 83.948 148.564C83.948 149.308 83.6537 150.021 83.1297 150.546C82.6058 151.072 81.8951 151.368 81.1542 151.368ZM91.333 125.679L82.8962 140.342C80.9111 139.913 78.8382 140.227 77.068 141.225C75.2977 142.223 73.9525 143.837 73.2856 145.761H61.0843C60.4174 143.837 59.0721 142.223 57.3018 141.225C55.5316 140.227 53.4586 139.913 51.4735 140.342L43.0367 125.679C44.2082 124.208 44.8425 122.379 44.8339 120.495C44.8254 118.612 44.1745 116.788 42.9896 115.328L51.4056 100.701C53.3984 101.158 55.489 100.859 57.2755 99.8624C59.0621 98.866 60.4186 97.2422 61.0843 95.3032H73.2856C73.9513 97.2425 75.308 98.8664 77.0948 99.8628C78.8817 100.859 80.9725 101.158 82.9655 100.701L91.3825 115.325C90.1965 116.785 89.5448 118.609 89.5358 120.493C89.5268 122.377 90.1611 124.207 91.333 125.679ZM97.9172 123.335C97.3647 123.335 96.8245 123.171 96.365 122.863C95.9056 122.555 95.5475 122.117 95.336 121.605C95.1246 121.093 95.0693 120.529 95.1771 119.985C95.2849 119.441 95.5509 118.942 95.9417 118.55C96.3324 118.158 96.8302 117.891 97.3722 117.783C97.9141 117.675 98.4759 117.73 98.9864 117.942C99.4969 118.154 99.9332 118.514 100.24 118.975C100.547 119.436 100.711 119.978 100.711 120.532C100.711 121.276 100.417 121.989 99.8928 122.514C99.3688 123.04 98.6582 123.335 97.9172 123.335ZM125.856 123.335C125.303 123.335 124.763 123.171 124.303 122.863C123.844 122.555 123.486 122.117 123.274 121.605C123.063 121.093 123.008 120.529 123.116 119.985C123.223 119.441 123.489 118.942 123.88 118.55C124.271 118.158 124.769 117.891 125.311 117.783C125.853 117.675 126.414 117.73 126.925 117.942C127.435 118.154 127.872 118.514 128.179 118.975C128.486 119.436 128.65 119.978 128.65 120.532C128.65 121.276 128.355 121.989 127.831 122.514C127.307 123.04 126.597 123.335 125.856 123.335ZM136.037 97.6502L127.602 112.311C125.617 111.88 123.542 112.193 121.771 113.191C120 114.19 118.654 115.804 117.987 117.729H105.786C105.119 115.804 103.773 114.19 102.002 113.192C100.231 112.194 98.1569 111.88 96.1714 112.311L87.7365 97.6489C88.9166 96.1678 89.5519 94.3238 89.5351 92.4277C89.5184 90.5315 88.8508 88.6991 87.6447 87.2391L96.0399 72.6482C98.04 73.1305 100.148 72.8466 101.95 71.8521C103.753 70.8576 105.12 69.224 105.786 67.271H117.987C118.653 69.2103 120.009 70.8342 121.796 71.8306C123.583 72.827 125.674 73.1255 127.667 72.6687L136.083 87.2935C134.897 88.7546 134.246 90.5793 134.237 92.4637C134.229 94.3481 134.864 96.1786 136.037 97.6502ZM142.619 95.3032C142.066 95.3032 141.526 95.1388 141.067 94.8307C140.607 94.5227 140.249 94.0849 140.038 93.5727C139.826 93.0605 139.771 92.4968 139.879 91.9531C139.986 91.4093 140.252 90.9098 140.643 90.5178C141.034 90.1257 141.532 89.8587 142.074 89.7506C142.616 89.6424 143.177 89.6979 143.688 89.9101C144.198 90.1223 144.635 90.4816 144.942 90.9426C145.249 91.4035 145.413 91.9455 145.413 92.4999C145.413 93.2434 145.118 93.9564 144.594 94.4821C144.07 95.0078 143.36 95.3032 142.619 95.3032Z" fill="#B08B2A"/>
</g>
<defs>
<filter id="filter0_d_69_13" x="0" y="0" width="179" height="185" filterUnits="userSpaceOnUse" color-interpolation-filters="sRGB">
<feFlood flood-opacity="0" result="BackgroundImageFix"/>
<feColorMatrix in="SourceAlpha" type="matrix" values="0 0 0 0 0 0 0 0 0 0 0 0 0 0 0 0 0 0 127 0" result="hardAlpha"/>
<feOffset/>
<feGaussianBlur stdDeviation="14"/>
<feComposite in2="hardAlpha" operator="out"/>
<feColorMatrix type="matrix" values="0 0 0 0 0.882353 0 0 0 0 0.698039 0 0 0 0 0.223529 0 0 0 0.3 0"/>
<feBlend mode="normal" in2="BackgroundImageFix" result="effect1_dropShadow_69_13"/>
<feBlend mode="normal" in="SourceGraphic" in2="effect1_dropShadow_69_13" result="shape"/>
</filter>
</defs>
</svg>
