<svg width="46" height="46" viewBox="0 0 46 46" fill="none" xmlns="http://www.w3.org/2000/svg">
<path d="M8.63464 0C4.05678 0 0.370689 3.68608 0.370689 8.26394V36.9946C0.370689 41.5725 4.05678 45.2586 8.63464 45.2586H24.2065V27.5653H19.5279V21.1952H24.2065V15.7528C24.2065 11.477 26.9708 7.55111 33.3388 7.55111C35.9171 7.55111 37.8236 7.79863 37.8236 7.79863L37.6737 13.7473C37.6737 13.7473 35.7293 13.7289 33.6075 13.7289C31.3111 13.7289 30.9429 14.787 30.9429 16.5435V21.1952H37.8561L37.5549 27.5653H30.9429V45.2586H37.3654C41.9432 45.2586 45.6293 41.5725 45.6293 36.9947V8.26398C45.6293 3.68613 41.9432 4.52585e-05 37.3654 4.52585e-05H8.6346L8.63464 0Z" fill="#8C8C8C"/>
</svg>
