<svg width="46" height="46" viewBox="0 0 46 46" fill="none" xmlns="http://www.w3.org/2000/svg">
<!-- <path d="M22.6293 12.9909C20.723 12.9909 18.8595 13.5562 17.2745 14.6153C15.6895 15.6743 14.4541 17.1797 13.7246 18.9408C12.9951 20.702 12.8042 22.64 13.1761 24.5097C13.548 26.3793 14.466 28.0967 15.8139 29.4447C17.1619 30.7927 18.8793 31.7106 20.7489 32.0825C22.6186 32.4544 24.5566 32.2635 26.3178 31.534C28.079 30.8045 29.5843 29.5692 30.6434 27.9841C31.7024 26.3991 32.2677 24.5356 32.2677 22.6293C32.2677 20.073 31.2522 17.6215 29.4447 15.8139C27.6371 14.0064 25.1856 12.9909 22.6293 12.9909ZM22.6293 27.239C21.7176 27.239 20.8264 26.9686 20.0683 26.4621C19.3103 25.9556 18.7194 25.2357 18.3705 24.3934C18.0216 23.551 17.9303 22.6242 18.1082 21.73C18.2861 20.8358 18.7251 20.0145 19.3698 19.3698C20.0145 18.7251 20.8358 18.2861 21.73 18.1082C22.6242 17.9303 23.551 18.0216 24.3934 18.3705C25.2357 18.7194 25.9556 19.3103 26.4621 20.0683C26.9686 20.8264 27.239 21.7176 27.239 22.6293C27.2335 23.8502 26.746 25.0195 25.8828 25.8828C25.0195 26.746 23.8502 27.2335 22.6293 27.239ZM32.6868 0H12.5718C9.23758 0 6.03988 1.32453 3.68221 3.68221C1.32453 6.03988 0 9.23758 0 12.5718V32.6868C0 36.021 1.32453 39.2187 3.68221 41.5764C6.03988 43.9341 9.23758 45.2586 12.5718 45.2586H32.6868C36.021 45.2586 39.2187 43.9341 41.5764 41.5764C43.9341 39.2187 45.2586 36.021 45.2586 32.6868V12.5718C45.2586 9.23758 43.9341 6.03988 41.5764 3.68221C39.2187 1.32453 36.021 0 32.6868 0ZM40.2299 32.6868C40.2299 34.6873 39.4352 36.606 38.0206 38.0206C36.606 39.4352 34.6873 40.2299 32.6868 40.2299H12.5718C10.5713 40.2299 8.65267 39.4352 7.23806 38.0206C5.82345 36.606 5.02874 34.6873 5.02874 32.6868V12.5718C5.02874 10.5713 5.82345 8.65267 7.23806 7.23806C8.65267 5.82345 10.5713 5.02874 12.5718 5.02874H32.6868C34.6873 5.02874 36.606 5.82345 38.0206 7.23806C39.4352 8.65267 40.2299 10.5713 40.2299 12.5718V32.6868ZM36.8774 11.7337C36.8774 12.3968 36.6808 13.0449 36.3124 13.5963C35.944 14.1476 35.4204 14.5773 34.8078 14.831C34.1953 15.0848 33.5212 15.1511 32.8709 15.0218C32.2205 14.8924 31.6232 14.5731 31.1543 14.1043C30.6855 13.6354 30.3662 13.0381 30.2368 12.3878C30.1075 11.7374 30.1739 11.0634 30.4276 10.4508C30.6813 9.83819 31.111 9.3146 31.6624 8.94622C32.2137 8.57785 32.8618 8.38123 33.5249 8.38123C34.414 8.38123 35.2668 8.73443 35.8955 9.36315C36.5242 9.99186 36.8774 10.8446 36.8774 11.7337Z" fill="#8C8C8C"/> -->
<path d="M22.6293 12.9909C20.723 12.9909 18.8595 13.5562 17.2745 14.6153C15.6895 15.6743 14.4541 17.1797 13.7246 18.9408C12.9951 20.702 12.8042 22.64 13.1761 24.5097C13.548 26.3793 14.466 28.0967 15.8139 29.4447C17.1619 30.7927 18.8793 31.7106 20.7489 32.0825C22.6186 32.4544 24.5566 32.2635 26.3178 31.534C28.079 30.8045 29.5843 29.5692 30.6434 27.9841C31.7024 26.3991 32.2677 24.5356 32.2677 22.6293C32.2677 20.073 31.2522 17.6215 29.4447 15.8139C27.6371 14.0064 25.1856 12.9909 22.6293 12.9909ZM22.6293 27.239C21.7176 27.239 20.8264 26.9686 20.0683 26.4621C19.3103 25.9556 18.7194 25.2357 18.3705 24.3934C18.0216 23.551 17.9303 22.6242 18.1082 21.73C18.2861 20.8358 18.7251 20.0145 19.3698 19.3698C20.0145 18.7251 20.8358 18.2861 21.73 18.1082C22.6242 17.9303 23.551 18.0216 24.3934 18.3705C25.2357 18.7194 25.9556 19.3103 26.4621 20.0683C26.9686 20.8264 27.239 21.7176 27.239 22.6293C27.2335 23.8502 26.746 25.0195 25.8828 25.8828C25.0195 26.746 23.8502 27.2335 22.6293 27.239ZM32.6868 0H12.5718C9.23758 0 6.03988 1.32453 3.68221 3.68221C1.32453 6.03988 0 9.23758 0 12.5718V32.6868C0 36.021 1.32453 39.2187 3.68221 41.5764C6.03988 43.9341 9.23758 45.2586 12.5718 45.2586H32.6868C36.021 45.2586 39.2187 43.9341 41.5764 41.5764C43.9341 39.2187 45.2586 36.021 45.2586 32.6868V12.5718C45.2586 9.23758 43.9341 6.03988 41.5764 3.68221C39.2187 1.32453 36.021 0 32.6868 0ZM40.2299 32.6868C40.2299 34.6873 39.4352 36.606 38.0206 38.0206C36.606 39.4352 34.6873 40.2299 32.6868 40.2299H12.5718C10.5713 40.2299 8.65267 39.4352 7.23806 38.0206C5.82345 36.606 5.02874 34.6873 5.02874 32.6868V12.5718C5.02874 10.5713 5.82345 8.65267 7.23806 7.23806C8.65267 5.82345 10.5713 5.02874 12.5718 5.02874H32.6868C34.6873 5.02874 36.606 5.82345 38.0206 7.23806C39.4352 8.65267 40.2299 10.5713 40.2299 12.5718V32.6868ZM36.8774 11.7337C36.8774 12.3968 36.6808 13.0449 36.3124 13.5963C35.944 14.1476 35.4204 14.5773 34.8078 14.831C34.1953 15.0848 33.5212 15.1511 32.8709 15.0218C32.2205 14.8924 31.6232 14.5731 31.1543 14.1043C30.6855 13.6354 30.3662 13.0381 30.2368 12.3878C30.1075 11.7374 30.1739 11.0634 30.4276 10.4508C30.6813 9.83819 31.111 9.3146 31.6624 8.94622C32.2137 8.57785 32.8618 8.38123 33.5249 8.38123C34.414 8.38123 35.2668 8.73443 35.8955 9.36315C36.5242 9.99186 36.8774 10.8446 36.8774 11.7337Z" fill="#8C8C8C"/>
<path id = "svgInternalID" fill="#8C8C8C"></path>
</svg>
