<svg width="285" height="76" viewBox="0 0 285 76" fill="none" xmlns="http://www.w3.org/2000/svg">
<path d="M107.588 48.4448C108.704 48.5018 109.792 48.5303 110.852 48.5303C112.994 48.5303 114.669 48.4733 115.876 48.3594C116.72 48.2682 117.591 48.103 118.491 47.8638L119.517 43.8477H120.627C120.343 46.001 120.12 48.0119 119.961 49.8804C118.936 50.0513 117.534 50.1367 115.757 50.1367L107.622 50C106.528 50 104.825 50.0627 102.512 50.188V49.2822C103.424 48.8835 103.959 48.4562 104.119 48.0005C104.29 47.5448 104.375 45.7389 104.375 42.583V33.1836C104.375 29.7656 104.29 27.863 104.119 27.4756C103.959 27.0768 103.498 26.8774 102.734 26.8774H100.872V25.8008C103.583 25.8805 105.383 25.9204 106.272 25.9204C107.457 25.9204 109.063 25.8805 111.091 25.8008V26.8774H108.972C108.368 26.8774 107.987 27.054 107.827 27.4072C107.668 27.749 107.588 29.1903 107.588 31.731V42.6172L107.639 47.4365L107.588 48.4448ZM126.127 41.9165C126.127 40.3442 126.492 38.9258 127.221 37.6611C127.95 36.3851 128.97 35.3882 130.28 34.6704C131.601 33.9526 133.1 33.5938 134.774 33.5938C137.201 33.5938 139.144 34.3115 140.602 35.7471C142.06 37.1826 142.79 39.0967 142.79 41.4893C142.79 44.3148 141.838 46.5592 139.936 48.2227C138.238 49.7152 136.204 50.4614 133.834 50.4614C131.556 50.4614 129.699 49.6981 128.263 48.1714C126.839 46.6333 126.127 44.5483 126.127 41.9165ZM129.34 40.7031C129.34 43.0501 129.818 45.061 130.775 46.7358C131.744 48.3993 133.134 49.231 134.945 49.231C136.324 49.231 137.435 48.7069 138.278 47.6587C139.132 46.6105 139.56 45.0212 139.56 42.8906C139.56 41.1702 139.309 39.6834 138.808 38.4302C138.306 37.1655 137.646 36.2484 136.825 35.6787C136.005 35.0977 135.088 34.8071 134.074 34.8071C133.174 34.8071 132.359 35.035 131.63 35.4907C130.912 35.9465 130.382 36.556 130.041 37.3193C129.573 38.3561 129.34 39.484 129.34 40.7031ZM161.346 47.6929L161.807 48.103L161.106 49.1968C160.332 49.6183 159.534 49.9316 158.714 50.1367C157.894 50.3532 157.056 50.4614 156.202 50.4614C154.527 50.4614 153.103 50.1424 151.929 49.5044C150.767 48.8664 149.867 47.9435 149.229 46.7358C148.591 45.5282 148.272 44.0926 148.272 42.4292C148.272 40.9595 148.517 39.6834 149.007 38.6011C149.497 37.5073 150.18 36.6528 151.058 36.0376C151.946 35.4224 153.051 34.8185 154.373 34.2261C155.307 33.8045 156.35 33.5938 157.5 33.5938C158.378 33.5938 159.13 33.6678 159.756 33.8159C160.394 33.9526 161.078 34.2033 161.807 34.5679C161.522 36.0718 161.368 37.5757 161.346 39.0796H160.269V38.2251C160.269 37.4959 160.161 36.9832 159.944 36.687C159.739 36.3794 159.261 36.0775 158.509 35.7812C157.757 35.485 156.937 35.3369 156.048 35.3369C154.51 35.3369 153.325 35.8097 152.493 36.7554C151.661 37.6896 151.246 39.091 151.246 40.9595C151.246 43.3634 151.861 45.2889 153.091 46.7358C154.196 48.0461 155.621 48.7012 157.364 48.7012C158.047 48.7012 158.72 48.6157 159.38 48.4448C160.041 48.2739 160.696 48.0233 161.346 47.6929ZM180.91 50.1196L181.115 47.0435L180.107 48.1372C179.321 48.9917 178.518 49.5955 177.697 49.9487C176.888 50.2905 175.886 50.4614 174.689 50.4614C173.664 50.4614 172.781 50.245 172.041 49.812C171.3 49.3791 170.759 48.8208 170.417 48.1372C170.087 47.4422 169.921 46.3485 169.921 44.856C169.921 44.0812 169.938 43.1812 169.973 42.1558L170.024 39.4043C170.024 37.4788 169.967 36.4079 169.853 36.1914C169.75 35.9749 169.392 35.8667 168.776 35.8667H167.255V34.9268C168.805 34.79 170.235 34.5052 171.545 34.0723L172.963 33.5425C173.157 33.5425 173.254 33.6849 173.254 33.9697L173.134 35.7129C172.975 38.1283 172.895 40.3727 172.895 42.4463C172.895 44.5199 172.98 45.8472 173.151 46.4282C173.322 46.9979 173.681 47.4764 174.228 47.8638C174.775 48.2397 175.441 48.4277 176.228 48.4277C177.287 48.4277 178.256 48.0859 179.133 47.4023C180.021 46.7188 180.603 46.0295 180.876 45.3345C181.024 44.9357 181.098 43.7337 181.098 41.7285C181.098 38.3561 181.035 36.5218 180.91 36.2256C180.796 35.9863 180.284 35.8667 179.372 35.8667H178.022V34.9268C179.195 34.79 180.192 34.6305 181.013 34.4482C181.833 34.266 182.699 33.9925 183.61 33.6279C183.724 33.571 183.827 33.5425 183.918 33.5425C184.112 33.5425 184.208 33.6507 184.208 33.8672L184.14 35.4565C183.969 39.353 183.884 42.7824 183.884 45.7446C183.884 47.408 183.969 48.3594 184.14 48.5986C184.391 48.9518 184.932 49.1284 185.764 49.1284H186.755V50.1196C185.331 50.0399 184.123 50 183.132 50C182.391 50 181.651 50.0399 180.91 50.1196ZM193.775 44.8901V46.001C193.775 46.8896 193.855 47.4422 194.015 47.6587C194.311 48.0233 194.886 48.3765 195.741 48.7183C196.607 49.0601 197.495 49.231 198.407 49.231C199.58 49.231 200.537 48.9176 201.278 48.291C202.018 47.653 202.389 46.8953 202.389 46.0181C202.389 45.3231 202.172 44.7648 201.739 44.3433C201.306 43.9217 200.48 43.5856 199.261 43.335C196.994 42.8792 195.496 42.4805 194.767 42.1387C194.037 41.7969 193.491 41.3411 193.126 40.7715C192.761 40.2018 192.579 39.5125 192.579 38.7036C192.579 37.1883 193.126 35.9578 194.22 35.0122C195.325 34.0666 196.886 33.5938 198.902 33.5938C200.497 33.5938 202.087 33.9128 203.67 34.5508C203.579 35.3255 203.505 36.6243 203.448 38.4473H202.44C202.417 37.4447 202.309 36.7839 202.115 36.4648C201.853 36.0433 201.375 35.6616 200.68 35.3198C199.985 34.978 199.244 34.8071 198.458 34.8071C197.421 34.8071 196.59 35.0749 195.963 35.6104C195.348 36.1344 195.04 36.7952 195.04 37.5928C195.04 38.3561 195.285 38.9315 195.775 39.3188C196.265 39.7176 197.621 40.1392 199.842 40.5835C201.483 40.9139 202.565 41.2215 203.089 41.5063C203.613 41.7912 204.035 42.2241 204.354 42.8052C204.673 43.3862 204.833 44.0527 204.833 44.8047C204.833 46.3428 204.172 47.6701 202.85 48.7866C201.54 49.9032 199.785 50.4614 197.586 50.4614C196.185 50.4614 194.613 50.2393 192.87 49.7949C192.562 49.7152 192.408 49.5955 192.408 49.436L192.459 49.1968C192.505 49.0259 192.545 48.724 192.579 48.291C192.682 47.1859 192.733 46.3257 192.733 45.7104L192.716 44.8901H193.775Z" fill="#E1E1D7"/>
</svg>
