<svg width="186" height="185" viewBox="0 0 186 185" fill="none" xmlns="http://www.w3.org/2000/svg">
<g filter="url(#filter0_d_69_19)">
<path d="M122.54 98.5C127.413 98.5 131.701 95.835 133.911 91.805L157.172 49.62C159.576 45.33 156.457 40 151.519 40H55.3548L49.2471 27H28V40H40.9952L64.3865 89.335L55.6147 105.195C50.8715 113.905 57.1092 124.5 66.9855 124.5H144.957V111.5H66.9855L74.1329 98.5H122.54ZM61.5275 53H140.473L122.54 85.5H76.9268L61.5275 53ZM66.9855 131C59.8382 131 54.0553 136.85 54.0553 144C54.0553 151.15 59.8382 157 66.9855 157C74.1329 157 79.9807 151.15 79.9807 144C79.9807 136.85 74.1329 131 66.9855 131ZM131.961 131C124.814 131 119.031 136.85 119.031 144C119.031 151.15 124.814 157 131.961 157C139.109 157 144.957 151.15 144.957 144C144.957 136.85 139.109 131 131.961 131Z" fill="#B08B2A"/>
<path d="M132.597 91.0807L132.595 91.084C130.645 94.6419 126.856 97 122.54 97H74.1329H73.2458L72.8184 97.7773L65.6711 110.777L64.4491 113H66.9855H143.457V123H66.9855C58.2639 123 52.728 113.639 56.9298 105.917C56.9306 105.915 56.9313 105.914 56.9321 105.912L65.6991 90.061L66.0715 89.3876L65.7419 88.6924L42.3505 39.3574L41.944 38.5H40.9952H29.5V28.5H48.2945L53.9972 40.6378L54.4023 41.5H55.3548H151.519C155.314 41.5 157.706 45.5987 155.863 48.8867L155.858 48.8957L132.597 91.0807ZM61.5275 51.5H59.1569L60.172 53.6423L75.5713 86.1423L75.9777 87H76.9268H122.54H123.425L123.853 86.2247L141.787 53.7247L143.014 51.5H140.473H61.5275ZM55.5553 144C55.5553 137.668 60.6769 132.5 66.9855 132.5C73.3039 132.5 78.4807 137.678 78.4807 144C78.4807 150.322 73.3039 155.5 66.9855 155.5C60.6769 155.5 55.5553 150.332 55.5553 144ZM120.531 144C120.531 137.668 125.653 132.5 131.961 132.5C138.28 132.5 143.457 137.678 143.457 144C143.457 150.322 138.28 155.5 131.961 155.5C125.653 155.5 120.531 150.332 120.531 144Z" stroke="#272113" stroke-width="3"/>
</g>
<defs>
<filter id="filter0_d_69_19" x="0" y="-1" width="186" height="186" filterUnits="userSpaceOnUse" color-interpolation-filters="sRGB">
<feFlood flood-opacity="0" result="BackgroundImageFix"/>
<feColorMatrix in="SourceAlpha" type="matrix" values="0 0 0 0 0 0 0 0 0 0 0 0 0 0 0 0 0 0 127 0" result="hardAlpha"/>
<feOffset/>
<feGaussianBlur stdDeviation="14"/>
<feComposite in2="hardAlpha" operator="out"/>
<feColorMatrix type="matrix" values="0 0 0 0 0.882353 0 0 0 0 0.698039 0 0 0 0 0.223529 0 0 0 0.3 0"/>
<feBlend mode="normal" in2="BackgroundImageFix" result="effect1_dropShadow_69_19"/>
<feBlend mode="normal" in="SourceGraphic" in2="effect1_dropShadow_69_19" result="shape"/>
</filter>
</defs>
</svg>
