<svg width="171" height="185" viewBox="0 0 171 185" fill="none" xmlns="http://www.w3.org/2000/svg">
<g filter="url(#filter0_d_69_11)">
<path d="M133.923 97.3007C135.113 97.3039 136.293 97.0696 137.395 96.6112C138.496 96.1529 139.497 95.4795 140.34 94.6296C141.183 93.7798 141.852 92.7702 142.309 91.6586C142.765 90.547 143 89.3554 143 88.1519C143 86.9484 142.765 85.7568 142.309 84.6452C141.852 83.5337 141.183 82.5241 140.34 81.6742C139.497 80.8243 138.496 80.1509 137.395 79.6926C136.293 79.2342 135.113 79 133.923 79.0031C133.723 79.0031 133.536 79.0498 133.339 79.0627L130.301 66.9525C131.31 66.1913 132.149 65.2253 132.766 64.1165C133.383 63.0077 133.764 61.7806 133.883 60.5143C134.003 59.248 133.858 57.9705 133.46 56.7639C133.062 55.5572 132.418 54.4482 131.57 53.5082C130.721 52.5681 129.688 51.8178 128.536 51.3055C127.384 50.7932 126.138 50.5303 124.879 50.5337C123.621 50.537 122.376 50.8065 121.227 51.3249C120.077 51.8433 119.048 52.5991 118.205 53.5437L87.362 39.0549C87.6846 38.1285 87.8554 37.155 87.8674 36.173C87.8706 34.9695 87.6387 33.7772 87.1851 32.6645C86.7316 31.5517 86.0652 30.5403 85.2242 29.6882C84.3832 28.8361 83.384 28.16 82.284 27.6987C81.1841 27.2374 80.0048 27 78.8139 27C77.6229 27 76.4437 27.2374 75.3437 27.6987C74.2437 28.16 73.2446 28.8361 72.4036 29.6882C71.5625 30.5403 70.8962 31.5517 70.4426 32.6645C69.989 33.7772 69.7572 34.9695 69.7603 36.173C69.7753 36.4865 69.8067 36.799 69.8542 37.1092L50.2154 43.1905C48.8613 41.4816 46.9435 40.3227 44.8129 39.9257C42.6824 39.5288 40.4817 39.9204 38.6135 41.0289C36.7453 42.1374 35.3346 43.8886 34.6396 45.9621C33.9445 48.0356 34.0116 50.2927 34.8286 52.3203L16.3461 68.9876C14.9533 68.1271 13.354 67.6679 11.7215 67.6597C9.56023 67.6531 7.46834 68.4304 5.82604 69.8502C4.18375 71.27 3.10007 73.2381 2.77196 75.3969C2.44385 77.5556 2.89309 79.7616 4.03802 81.614C5.18296 83.4665 6.94759 84.8423 9.01122 85.4915L7.78443 97.381C6.40607 97.5751 5.09074 98.0884 3.94113 98.881C2.79151 99.6735 1.83873 100.724 1.15715 101.95C0.475578 103.176 0.0836561 104.545 0.0119846 105.949C-0.0596869 107.354 0.190831 108.756 0.743982 110.046C1.29713 111.337 2.13795 112.481 3.20078 113.388C4.26362 114.296 5.51972 114.944 6.87102 115.28C8.22232 115.616 9.63225 115.632 10.9907 115.327C12.3492 115.022 13.6195 114.403 14.7025 113.52L20.7944 116.228C20.7928 116.293 20.7754 116.354 20.7754 116.42C20.7725 118.707 21.6184 120.912 23.1459 122.599C24.6735 124.287 26.7717 125.334 29.0261 125.534C31.2805 125.734 33.5272 125.072 35.3225 123.68C37.1178 122.288 38.3311 120.266 38.7228 118.013H45.6844C46.2295 120.003 47.427 121.746 49.0808 122.958C50.7346 124.17 52.7466 124.778 54.7873 124.684C56.828 124.589 58.7764 123.797 60.3134 122.437C61.8505 121.078 62.885 119.231 63.2476 117.199L82.8426 117.846C84.2764 119.096 86.0696 119.848 87.9583 119.992C89.8469 120.136 91.7313 119.663 93.3342 118.643C104.396 124.742 113.725 133.603 120.433 144.382C119.992 145.468 119.764 146.63 119.761 147.804C119.753 149.368 120.142 150.907 120.89 152.275C121.638 153.643 122.72 154.795 124.034 155.62C125.347 156.446 126.848 156.917 128.393 156.99C129.939 157.063 131.476 156.734 132.86 156.036C134.244 155.337 135.428 154.292 136.298 153C137.169 151.708 137.697 150.212 137.833 148.655C137.969 147.098 137.708 145.532 137.075 144.106C136.442 142.68 135.458 141.441 134.216 140.509C131.049 135.85 128.825 130.604 127.673 125.073C129.225 124.574 130.613 123.658 131.689 122.421C132.765 121.185 133.487 119.676 133.778 118.057C134.069 116.437 133.918 114.768 133.341 113.229C132.764 111.689 131.783 110.338 130.503 109.319L133.915 97.3005L133.923 97.3007ZM137.482 88.1519C137.482 88.8634 137.274 89.5589 136.882 90.1505C136.491 90.7421 135.935 91.2032 135.285 91.4754C134.634 91.7477 133.919 91.819 133.228 91.6802C132.538 91.5414 131.903 91.1988 131.405 90.6957C130.907 90.1926 130.568 89.5516 130.431 88.8538C130.294 88.156 130.364 87.4327 130.634 86.7753C130.903 86.118 131.359 85.5562 131.945 85.1609C132.53 84.7656 133.218 84.5546 133.923 84.5546C134.867 84.5551 135.772 84.9342 136.439 85.6087C137.107 86.2833 137.482 87.198 137.482 88.1519ZM130.268 79.7982C128.789 80.4657 127.516 81.5221 126.58 82.8569C125.643 84.1917 125.079 85.756 124.945 87.3864H117.874C117.77 86.1413 117.414 84.931 116.828 83.8311C116.241 82.7313 115.436 81.7654 114.463 80.9939L123.34 68.6748C124.698 68.95 126.103 68.861 127.416 68.4165L130.268 79.7982ZM115.93 115.281L97.6477 110.55C97.5744 108.488 96.8068 106.513 95.4719 104.952L102.855 94.9136C103.987 95.9915 105.384 96.7422 106.901 97.0873C108.418 97.4323 109.999 97.3589 111.479 96.8748L119.378 109.199C118.434 109.932 117.643 110.847 117.051 111.891C116.459 112.935 116.078 114.087 115.93 115.281H115.93ZM49.9525 54.9699L75.6965 68.58C75.1463 70.1958 75.1085 71.9448 75.5883 73.5834L59.0634 82.1714C58.2223 81.1818 57.1802 80.3867 56.0081 79.84C54.8359 79.2933 53.5611 79.0079 52.2701 79.0031C52.1959 79.0031 52.127 79.0233 52.0531 79.0253L46.0978 57.5478C47.5824 57.0412 48.9108 56.1528 49.9525 54.9699ZM120.27 67.5173L111.651 79.4831C110.197 78.975 108.634 78.8677 107.125 79.1722C105.616 79.4767 104.214 80.182 103.065 81.2156L93.0328 73.5648C93.3783 72.4729 93.4541 71.3121 93.2536 70.1838L116.632 63.4303C117.403 65.1364 118.672 66.5628 120.27 67.5173ZM108.897 91.7492C108.193 91.7492 107.504 91.5382 106.919 91.143C106.333 90.7477 105.877 90.1859 105.608 89.5285C105.338 88.8712 105.268 88.1479 105.405 87.4501C105.542 86.7523 105.882 86.1113 106.379 85.6082C106.877 85.1051 107.512 84.7625 108.202 84.6237C108.893 84.4849 109.608 84.5561 110.259 84.8284C110.909 85.1007 111.465 85.5617 111.857 86.1533C112.248 86.7449 112.456 87.4404 112.456 88.1519C112.456 89.1058 112.081 90.0205 111.413 90.6951C110.746 91.3696 109.841 91.7488 108.897 91.7492ZM84.3076 74.8543C83.6035 74.8543 82.9153 74.6433 82.3298 74.2481C81.7444 73.8528 81.2881 73.291 81.0187 72.6336C80.7492 71.9763 80.6787 71.253 80.8161 70.5552C80.9534 69.8574 81.2924 69.2164 81.7903 68.7133C82.2882 68.2102 82.9225 67.8676 83.613 67.7288C84.3036 67.5899 85.0194 67.6612 85.6698 67.9334C86.3203 68.2057 86.8763 68.6668 87.2675 69.2584C87.6587 69.85 87.8674 70.5455 87.8674 71.257C87.867 72.2109 87.4918 73.1256 86.8243 73.8001C86.1568 74.4747 85.2516 74.8538 84.3076 74.8543ZM52.2701 84.5546C52.9742 84.5546 53.6625 84.7656 54.2479 85.1609C54.8334 85.5561 55.2897 86.118 55.5591 86.7753C55.8286 87.4326 55.8991 88.1559 55.7617 88.8537C55.6243 89.5516 55.2853 90.1925 54.7874 90.6956C54.2896 91.1987 53.6553 91.5414 52.9647 91.6802C52.2741 91.819 51.5584 91.7477 50.9079 91.4754C50.2574 91.2032 49.7014 90.7421 49.3102 90.1505C48.9191 89.5589 48.7103 88.8634 48.7103 88.1519C48.7108 87.198 49.086 86.2833 49.7535 85.6088C50.421 84.9342 51.3262 84.5551 52.2701 84.5546ZM61.3237 88.1519C61.317 87.0377 61.1067 85.9344 60.7036 84.8973L76.9007 76.486C77.7319 77.6937 78.8393 78.6808 80.129 79.3632C81.4186 80.0456 82.8522 80.4033 84.3079 80.4058C84.361 80.4058 84.4103 80.3906 84.4631 80.3898L81.7232 103.717L57.0907 106.868C56.5991 106.708 56.0948 106.592 55.5834 106.521L53.7015 97.1545C55.8225 96.812 57.7539 95.7184 59.1503 94.0691C60.5467 92.4198 61.3171 90.3224 61.3237 88.1519ZM54.3599 111.947C55.064 111.947 55.7523 112.158 56.3377 112.553C56.9231 112.949 57.3794 113.51 57.6488 114.168C57.9182 114.825 57.9887 115.548 57.8514 116.246C57.714 116.944 57.375 117.585 56.8771 118.088C56.3793 118.591 55.745 118.934 55.0544 119.072C54.3639 119.211 53.6481 119.14 52.9977 118.868C52.3472 118.595 51.7912 118.134 51.4001 117.543C51.0089 116.951 50.8001 116.256 50.8001 115.544C50.8006 114.59 51.1758 113.676 51.8433 113.001C52.5108 112.327 53.416 111.947 54.3599 111.947ZM61.1482 109.558L80.3998 107.1C79.8601 108.27 79.5779 109.545 79.5727 110.837C79.5674 112.128 79.8392 113.405 80.3694 114.58L63.2604 114.013C62.9778 112.359 62.2467 110.817 61.1482 109.558ZM87.7181 79.7193C89.3131 79.056 90.6885 77.9479 91.6836 76.5242L101.053 83.6721C100.294 84.9702 99.8782 86.4437 99.8451 87.9512C99.812 89.4586 100.163 90.9493 100.864 92.2802L93.0276 102.925C91.8267 102.221 90.4783 101.812 89.0919 101.734C87.7055 101.655 86.3202 101.908 85.0488 102.472L87.7181 79.7193ZM124.869 56.0852C125.573 56.0852 126.261 56.2962 126.847 56.6915C127.432 57.0868 127.888 57.6486 128.158 58.3059C128.427 58.9632 128.498 59.6865 128.36 60.3843C128.223 61.0821 127.884 61.7231 127.386 62.2262C126.888 62.7292 126.254 63.0718 125.563 63.2106C124.873 63.3494 124.157 63.2782 123.507 63.0059C122.856 62.7337 122.3 62.2726 121.909 61.681C121.518 61.0895 121.309 60.394 121.309 59.6825C121.31 58.7286 121.685 57.8139 122.352 57.1393C123.02 56.4648 123.925 56.0857 124.869 56.0852ZM116.491 56.2493C116.047 57.3386 115.818 58.5047 115.815 59.6825C115.815 59.9055 115.865 60.115 115.881 60.334L92.3415 67.131C91.5914 65.6262 90.4439 64.3605 89.026 63.474C87.608 62.5875 85.975 62.1148 84.3076 62.1082C84.0316 62.1082 83.7715 62.1661 83.5016 62.1907L80.217 45.1782C82.4385 44.8212 84.4473 43.6368 85.8481 41.8583L116.491 56.2493ZM78.8138 32.5756C79.5179 32.5756 80.2062 32.7866 80.7916 33.1819C81.377 33.5771 81.8333 34.139 82.1028 34.7963C82.3722 35.4536 82.4427 36.1769 82.3054 36.8747C82.168 37.5726 81.829 38.2135 81.3311 38.7166C80.8333 39.2197 80.199 39.5624 79.5084 39.7012C78.8179 39.84 78.1021 39.7687 77.4516 39.4965C76.8011 39.2242 76.2451 38.7631 75.854 38.1715C75.4628 37.58 75.254 36.8845 75.254 36.173C75.2545 35.219 75.6297 34.3043 76.2972 33.6298C76.9647 32.9553 77.8698 32.5761 78.8138 32.5756ZM70.7126 40.1732C71.3164 41.4298 72.1964 42.5302 73.2856 43.3903C74.3747 44.2504 75.6441 44.8475 76.9966 45.1358L80.4494 63.0149C79.1437 63.6448 78.0059 64.581 77.131 65.7455L51.6243 52.2573C52.4337 50.2743 52.4842 48.0579 51.7659 46.0394L70.7126 40.1732ZM43.2165 45.3217C43.9206 45.3217 44.6089 45.5327 45.1943 45.928C45.7797 46.3233 46.236 46.8851 46.5055 47.5424C46.7749 48.1997 46.8454 48.923 46.708 49.6209C46.5707 50.3187 46.2316 50.9597 45.7338 51.4627C45.2359 51.9658 44.6016 52.3085 43.911 52.4473C43.2205 52.5861 42.5047 52.5148 41.8542 52.2426C41.2038 51.9703 40.6478 51.5092 40.2566 50.9176C39.8654 50.326 39.6567 49.6305 39.6567 48.9191C39.6571 47.9651 40.0323 47.0504 40.6998 46.3759C41.3673 45.7013 42.2725 45.3222 43.2165 45.3217ZM42.9599 58.0414L48.9567 79.6587C47.2255 80.3503 45.7461 81.5621 44.7182 83.1304L20.7601 76.96L20.7751 76.8083C20.7655 74.7254 20.0457 72.7094 18.7369 71.1001L36.544 55.047C37.3579 55.9581 38.346 56.6931 39.4487 57.2078C40.5513 57.7224 41.7458 58.006 42.9599 58.0414ZM12.6557 106.395C12.6557 107.107 12.447 107.802 12.0558 108.394C11.6646 108.986 11.1087 109.447 10.4582 109.719C9.80773 109.991 9.09197 110.062 8.40143 109.924C7.71089 109.785 7.07659 109.442 6.57874 108.939C6.08089 108.436 5.74185 107.795 5.60449 107.097C5.46713 106.399 5.53763 105.676 5.80707 105.019C6.0765 104.362 6.53277 103.8 7.11818 103.404C7.70359 103.009 8.39185 102.798 9.09591 102.798C10.0399 102.799 10.9451 103.178 11.6126 103.852C12.2801 104.527 12.6553 105.442 12.6557 106.395ZM10.9497 97.4431L12.1426 85.9143C13.8916 85.8314 15.5791 85.2369 17 84.2031C18.421 83.1692 19.5141 81.7406 20.1466 80.0907L43.4657 86.1009C43.1658 87.3039 43.1363 88.5595 43.3795 89.7755L15.9932 100.542C14.7032 98.9671 12.9271 97.8757 10.9497 97.4431ZM11.7215 73.2112C12.4256 73.2112 13.1139 73.4221 13.6993 73.8174C14.2847 74.2127 14.741 74.7745 15.0105 75.4318C15.2799 76.0892 15.3504 76.8125 15.2131 77.5103C15.0757 78.2081 14.7367 78.8491 14.2388 79.3522C13.741 79.8553 13.1067 80.1979 12.4161 80.3367C11.7256 80.4755 11.0098 80.4043 10.3593 80.132C9.7088 79.8597 9.15282 79.3987 8.76165 78.8071C8.37049 78.2155 8.1617 77.52 8.1617 76.8085C8.16215 75.8546 8.53735 74.9399 9.20484 74.2653C9.87234 73.5908 10.7775 73.2117 11.7215 73.2112ZM16.8715 111.002C17.5623 109.865 17.9863 108.583 18.1109 107.255C18.2356 105.926 18.0575 104.587 17.5905 103.339L44.4945 92.7578C45.1039 93.8096 45.9153 94.7277 46.881 95.458C47.8467 96.1882 48.9471 96.716 50.1176 97.0102L38.3568 113.472C37.7676 111.703 36.6545 110.16 35.1684 109.051C33.6822 107.942 31.8947 107.322 30.0481 107.274C28.2015 107.227 26.3849 107.753 24.8445 108.784C23.304 109.814 22.1141 111.297 21.4359 113.034L16.8715 111.002ZM29.8287 120.017C29.1246 120.017 28.4363 119.806 27.8509 119.411C27.2655 119.016 26.8093 118.454 26.5399 117.796C26.2704 117.139 26.1999 116.416 26.3373 115.718C26.4747 115.02 26.8137 114.379 27.3116 113.876C27.8094 113.373 28.4437 113.03 29.1343 112.892C29.8248 112.753 30.5406 112.824 31.191 113.096C31.8415 113.369 32.3975 113.83 32.7886 114.421C33.1798 115.013 33.3885 115.708 33.3885 116.42C33.3881 117.374 33.0129 118.288 32.3454 118.963C31.6779 119.638 30.7726 120.017 29.8287 120.017ZM51.3167 98.9503L52.4433 106.612C50.5497 107.035 48.8409 108.062 47.5688 109.541C46.2967 111.02 45.5288 112.873 45.3782 114.827H40.9635L51.3167 98.9503ZM88.6261 114.466C87.9221 114.466 87.2338 114.255 86.6484 113.86C86.0629 113.464 85.6067 112.903 85.3372 112.245C85.0678 111.588 84.9973 110.865 85.1347 110.167C85.272 109.469 85.6111 108.828 86.1089 108.325C86.6068 107.822 87.2411 107.479 87.9317 107.34C88.6222 107.202 89.338 107.273 89.9885 107.545C90.639 107.817 91.1949 108.278 91.5861 108.87C91.9773 109.462 92.186 110.157 92.186 110.869C92.1855 111.823 91.8102 112.737 91.1427 113.412C90.4752 114.086 89.5701 114.465 88.6261 114.466V114.466ZM128.815 151.402C128.111 151.402 127.423 151.191 126.837 150.796C126.252 150.4 125.795 149.839 125.526 149.181C125.257 148.524 125.186 147.801 125.323 147.103C125.461 146.405 125.8 145.764 126.298 145.261C126.796 144.758 127.43 144.415 128.12 144.276C128.811 144.138 129.527 144.209 130.177 144.481C130.828 144.753 131.384 145.214 131.775 145.806C132.166 146.398 132.375 147.093 132.375 147.805C132.374 148.758 131.999 149.673 131.331 150.348C130.664 151.022 129.759 151.401 128.815 151.402V151.402ZM128.815 138.656C127.613 138.656 126.424 138.9 125.316 139.371C124.209 139.843 123.206 140.533 122.367 141.402C115.65 131.008 106.537 122.419 95.8086 116.372C96.3355 115.678 96.7603 114.909 97.0696 114.092L116.135 118.699C116.624 120.612 117.715 122.314 119.243 123.548C120.771 124.782 122.654 125.482 124.609 125.543C125.392 130.211 127.051 134.686 129.497 138.725C129.268 138.708 129.049 138.655 128.815 138.655V138.656ZM124.869 120.017C124.165 120.017 123.477 119.806 122.891 119.411C122.306 119.016 121.85 118.454 121.58 117.797C121.311 117.139 121.24 116.416 121.378 115.718C121.515 115.021 121.854 114.38 122.352 113.877C122.85 113.373 123.484 113.031 124.174 112.892C124.865 112.753 125.581 112.824 126.231 113.097C126.882 113.369 127.438 113.83 127.829 114.422C128.22 115.013 128.429 115.709 128.429 116.42C128.428 117.374 128.053 118.289 127.386 118.963C126.718 119.638 125.813 120.017 124.869 120.017V120.017ZM127.669 107.765C125.9 107.12 123.966 107.106 122.189 107.728L114.309 95.4388C115.903 94.2268 117.055 92.516 117.587 90.573H125.232C125.615 91.9682 126.319 93.2517 127.288 94.318C128.257 95.3844 129.463 96.2031 130.806 96.7068L127.669 107.765Z" fill="#B08B2A"/>
</g>
<defs>
<filter id="filter0_d_69_11" x="-28" y="-1" width="199" height="186" filterUnits="userSpaceOnUse" color-interpolation-filters="sRGB">
<feFlood flood-opacity="0" result="BackgroundImageFix"/>
<feColorMatrix in="SourceAlpha" type="matrix" values="0 0 0 0 0 0 0 0 0 0 0 0 0 0 0 0 0 0 127 0" result="hardAlpha"/>
<feOffset/>
<feGaussianBlur stdDeviation="14"/>
<feComposite in2="hardAlpha" operator="out"/>
<feColorMatrix type="matrix" values="0 0 0 0 0.882353 0 0 0 0 0.698039 0 0 0 0 0.223529 0 0 0 0.3 0"/>
<feBlend mode="normal" in2="BackgroundImageFix" result="effect1_dropShadow_69_11"/>
<feBlend mode="normal" in="SourceGraphic" in2="effect1_dropShadow_69_11" result="shape"/>
</filter>
</defs>
</svg>
