<svg width="46" height="37" viewBox="0 0 46 37" fill="none" xmlns="http://www.w3.org/2000/svg">
<path d="M46 4.82068C44.3356 5.54644 42.5477 6.03683 40.6681 6.25848C42.6075 5.11646 44.0585 3.31906 44.7502 1.20166C42.9281 2.26675 40.9339 3.01646 38.8542 3.41819C37.4557 1.94874 35.6034 0.974764 33.5847 0.647479C31.5661 0.320194 29.4941 0.657909 27.6905 1.60819C25.8869 2.55848 24.4526 4.06816 23.6102 5.90286C22.7678 7.73756 22.5645 9.79462 23.0318 11.7547C19.3397 11.5722 15.7278 10.6279 12.4306 8.98285C9.13338 7.33783 6.22448 5.02892 3.8927 2.20596C3.0954 3.55942 2.63696 5.12864 2.63696 6.79986C2.63607 8.30434 3.01255 9.78578 3.733 11.1127C4.45345 12.4397 5.49559 13.5711 6.76696 14.4067C5.29251 14.3605 3.85059 13.9684 2.56121 13.2631V13.3808C2.56106 15.4909 3.30276 17.536 4.66046 19.1692C6.01816 20.8024 7.90823 21.9231 10.01 22.341C8.64217 22.7053 7.20814 22.759 5.81618 22.498C6.40917 24.3136 7.56425 25.9013 9.11972 27.0387C10.6752 28.1762 12.5532 28.8066 14.4908 28.8415C11.2016 31.3825 7.13947 32.7608 2.95787 32.7548C2.21714 32.755 1.47704 32.7124 0.741379 32.6273C4.98595 35.313 9.92693 36.7383 14.9731 36.7328C32.0553 36.7328 41.3936 22.8098 41.3936 10.7347C41.3936 10.3424 41.3836 9.94615 41.3657 9.55384C43.1821 8.26115 44.7501 6.66039 45.996 4.82656L46 4.82068Z" fill="#8C8C8C"/>
</svg>
