<svg width="185" height="185" viewBox="0 0 185 185" fill="none" xmlns="http://www.w3.org/2000/svg">
<g filter="url(#filter0_d_69_17)">
<path d="M51.7632 99.2895C48.0289 99.2895 44.9737 102.345 44.9737 106.079C44.9737 109.813 48.0289 112.868 51.7632 112.868C55.4974 112.868 58.5526 109.813 58.5526 106.079C58.5526 102.345 55.4974 99.2895 51.7632 99.2895ZM51.7632 126.447C48.0289 126.447 44.9737 129.503 44.9737 133.237C44.9737 136.971 48.0289 140.026 51.7632 140.026C55.4974 140.026 58.5526 136.971 58.5526 133.237C58.5526 129.503 55.4974 126.447 51.7632 126.447ZM51.7632 72.1316C48.0289 72.1316 44.9737 75.1868 44.9737 78.9211C44.9737 82.6553 48.0289 85.7105 51.7632 85.7105C55.4974 85.7105 58.5526 82.6553 58.5526 78.9211C58.5526 75.1868 55.4974 72.1316 51.7632 72.1316ZM31.3947 75.5263C29.4937 75.5263 28 77.02 28 78.9211C28 80.8221 29.4937 82.3158 31.3947 82.3158C33.2958 82.3158 34.7895 80.8221 34.7895 78.9211C34.7895 77.02 33.2958 75.5263 31.3947 75.5263ZM51.7632 44.9737C48.0289 44.9737 44.9737 48.0289 44.9737 51.7632C44.9737 55.4974 48.0289 58.5526 51.7632 58.5526C55.4974 58.5526 58.5526 55.4974 58.5526 51.7632C58.5526 48.0289 55.4974 44.9737 51.7632 44.9737ZM153.605 82.3158C155.506 82.3158 157 80.8221 157 78.9211C157 77.02 155.506 75.5263 153.605 75.5263C151.704 75.5263 150.211 77.02 150.211 78.9211C150.211 80.8221 151.704 82.3158 153.605 82.3158ZM106.079 58.5526C109.813 58.5526 112.868 55.4974 112.868 51.7632C112.868 48.0289 109.813 44.9737 106.079 44.9737C102.345 44.9737 99.2895 48.0289 99.2895 51.7632C99.2895 55.4974 102.345 58.5526 106.079 58.5526ZM106.079 34.7895C107.98 34.7895 109.474 33.2958 109.474 31.3947C109.474 29.4937 107.98 28 106.079 28C104.178 28 102.684 29.4937 102.684 31.3947C102.684 33.2958 104.178 34.7895 106.079 34.7895ZM31.3947 102.684C29.4937 102.684 28 104.178 28 106.079C28 107.98 29.4937 109.474 31.3947 109.474C33.2958 109.474 34.7895 107.98 34.7895 106.079C34.7895 104.178 33.2958 102.684 31.3947 102.684ZM78.9211 150.211C77.02 150.211 75.5263 151.704 75.5263 153.605C75.5263 155.506 77.02 157 78.9211 157C80.8221 157 82.3158 155.506 82.3158 153.605C82.3158 151.704 80.8221 150.211 78.9211 150.211ZM78.9211 34.7895C80.8221 34.7895 82.3158 33.2958 82.3158 31.3947C82.3158 29.4937 80.8221 28 78.9211 28C77.02 28 75.5263 29.4937 75.5263 31.3947C75.5263 33.2958 77.02 34.7895 78.9211 34.7895ZM78.9211 58.5526C82.6553 58.5526 85.7105 55.4974 85.7105 51.7632C85.7105 48.0289 82.6553 44.9737 78.9211 44.9737C75.1868 44.9737 72.1316 48.0289 72.1316 51.7632C72.1316 55.4974 75.1868 58.5526 78.9211 58.5526ZM78.9211 95.8947C73.2858 95.8947 68.7368 100.444 68.7368 106.079C68.7368 111.714 73.2858 116.263 78.9211 116.263C84.5563 116.263 89.1053 111.714 89.1053 106.079C89.1053 100.444 84.5563 95.8947 78.9211 95.8947ZM133.237 99.2895C129.503 99.2895 126.447 102.345 126.447 106.079C126.447 109.813 129.503 112.868 133.237 112.868C136.971 112.868 140.026 109.813 140.026 106.079C140.026 102.345 136.971 99.2895 133.237 99.2895ZM133.237 126.447C129.503 126.447 126.447 129.503 126.447 133.237C126.447 136.971 129.503 140.026 133.237 140.026C136.971 140.026 140.026 136.971 140.026 133.237C140.026 129.503 136.971 126.447 133.237 126.447ZM133.237 72.1316C129.503 72.1316 126.447 75.1868 126.447 78.9211C126.447 82.6553 129.503 85.7105 133.237 85.7105C136.971 85.7105 140.026 82.6553 140.026 78.9211C140.026 75.1868 136.971 72.1316 133.237 72.1316ZM133.237 44.9737C129.503 44.9737 126.447 48.0289 126.447 51.7632C126.447 55.4974 129.503 58.5526 133.237 58.5526C136.971 58.5526 140.026 55.4974 140.026 51.7632C140.026 48.0289 136.971 44.9737 133.237 44.9737ZM153.605 102.684C151.704 102.684 150.211 104.178 150.211 106.079C150.211 107.98 151.704 109.474 153.605 109.474C155.506 109.474 157 107.98 157 106.079C157 104.178 155.506 102.684 153.605 102.684ZM106.079 126.447C102.345 126.447 99.2895 129.503 99.2895 133.237C99.2895 136.971 102.345 140.026 106.079 140.026C109.813 140.026 112.868 136.971 112.868 133.237C112.868 129.503 109.813 126.447 106.079 126.447ZM106.079 150.211C104.178 150.211 102.684 151.704 102.684 153.605C102.684 155.506 104.178 157 106.079 157C107.98 157 109.474 155.506 109.474 153.605C109.474 151.704 107.98 150.211 106.079 150.211ZM78.9211 68.7368C73.2858 68.7368 68.7368 73.2858 68.7368 78.9211C68.7368 84.5563 73.2858 89.1053 78.9211 89.1053C84.5563 89.1053 89.1053 84.5563 89.1053 78.9211C89.1053 73.2858 84.5563 68.7368 78.9211 68.7368ZM78.9211 126.447C75.1868 126.447 72.1316 129.503 72.1316 133.237C72.1316 136.971 75.1868 140.026 78.9211 140.026C82.6553 140.026 85.7105 136.971 85.7105 133.237C85.7105 129.503 82.6553 126.447 78.9211 126.447ZM106.079 95.8947C100.444 95.8947 95.8947 100.444 95.8947 106.079C95.8947 111.714 100.444 116.263 106.079 116.263C111.714 116.263 116.263 111.714 116.263 106.079C116.263 100.444 111.714 95.8947 106.079 95.8947ZM106.079 68.7368C100.444 68.7368 95.8947 73.2858 95.8947 78.9211C95.8947 84.5563 100.444 89.1053 106.079 89.1053C111.714 89.1053 116.263 84.5563 116.263 78.9211C116.263 73.2858 111.714 68.7368 106.079 68.7368Z" fill="#B08B2A"/>
</g>
<defs>
<filter id="filter0_d_69_17" x="0" y="0" width="185" height="185" filterUnits="userSpaceOnUse" color-interpolation-filters="sRGB">
<feFlood flood-opacity="0" result="BackgroundImageFix"/>
<feColorMatrix in="SourceAlpha" type="matrix" values="0 0 0 0 0 0 0 0 0 0 0 0 0 0 0 0 0 0 127 0" result="hardAlpha"/>
<feOffset/>
<feGaussianBlur stdDeviation="14"/>
<feComposite in2="hardAlpha" operator="out"/>
<feColorMatrix type="matrix" values="0 0 0 0 0.882353 0 0 0 0 0.698039 0 0 0 0 0.223529 0 0 0 0.3 0"/>
<feBlend mode="normal" in2="BackgroundImageFix" result="effect1_dropShadow_69_17"/>
<feBlend mode="normal" in="SourceGraphic" in2="effect1_dropShadow_69_17" result="shape"/>
</filter>
</defs>
</svg>
